<svg xmlns="http://www.w3.org/2000/svg" xmlns:xlink="http://www.w3.org/1999/xlink" width="27" height="36" viewBox="0 0 27 36">
    <defs>
        <path id="a" d="M0 .09h9.12v15.623H0z"/>
        <path id="c" d="M0 35.91h26.919V.199H0z"/>
    </defs>
    <g fill="none" fill-rule="evenodd">
        <g transform="translate(0 .109)">
            <mask id="b" fill="#fff">
                <use xlink:href="#a"/>
            </mask>
            <path fill="#F4CC6A" d="M8.171 15.713C1.301 9.86-.763 4.429.238 1.643.583.682 1.308.102 2.178.09a3.643 3.643 0 0 1 2.674 1.082c1.03 1.017 1.644 2.704 1.644 4.514H5.03c0-1.404-.463-2.734-1.208-3.47a2.22 2.22 0 0 0-1.625-.659c-.31.005-.487.319-.582.581-.67 1.866.775 6.723 7.504 12.456l-.949 1.118z" mask="url(#b)"/>
        </g>
        <path fill="#F4CC6A" d="M18.747 15.821l-.948-1.118c6.729-5.732 8.174-10.589 7.503-12.455-.094-.263-.272-.577-.581-.581a2.21 2.21 0 0 0-1.626.659c-.745.736-1.207 2.065-1.207 3.47h-1.465c0-1.81.614-3.498 1.643-4.515A3.646 3.646 0 0 1 24.741.2c.87.012 1.595.591 1.94 1.551 1 2.787-1.064 8.218-7.934 14.07"/>
        <path fill="#E1AD3D" d="M15.682 19.814c0 1.376.312 2.68.87 3.844h-6.186c.56-1.164.87-2.468.87-3.844 0-1.377-.31-2.681-.87-3.845h6.187a8.852 8.852 0 0 0-.87 3.845"/>
        <path fill="#F4CC6A" d="M5.042 2.308V9.19c0 4.657 3.769 8.432 8.417 8.432 4.649 0 8.417-3.775 8.417-8.432V2.308H5.042z"/>
        <path fill="#E1AD3D" d="M18.15 27.084c0-2.595-2.1-4.698-4.69-4.698a4.694 4.694 0 0 0-4.69 4.698h9.38z"/>
        <mask id="d" fill="#fff">
            <use xlink:href="#c"/>
        </mask>
        <path fill="#C68F30" d="M4.353 35.91h18.213v-2.348H4.353z" mask="url(#d)"/>
        <path fill="#F4CC6A" d="M6.299 33.562H20.62v-6.958H6.3z" mask="url(#d)"/>
        <path fill="#C68F30" d="M17.221 32.264H9.698a.929.929 0 0 0-.928-.93v-2.502a.929.929 0 0 0 .928-.93h7.523c0 .514.416.93.928.93v2.502a.929.929 0 0 0-.928.93" mask="url(#d)"/>
    </g>
</svg>
