<svg xmlns="http://www.w3.org/2000/svg" width="45" height="46" viewBox="0 0 45 46">
    <g fill="none" fill-rule="evenodd">
        <path fill="#FFF" fill-rule="nonzero" d="M22.5 3.833C12.15 3.833 3.75 12.42 3.75 23c0 10.58 8.4 19.167 18.75 19.167S41.25 33.58 41.25 23c0-10.58-8.4-19.167-18.75-19.167zm2.644 30.84v3.66h-5.006v-3.699c-3.207-.69-5.926-2.798-6.132-6.517h3.675c.188 2.013 1.538 3.585 4.969 3.585 3.675 0 4.5-1.879 4.5-3.048 0-1.59-.825-3.086-5.006-4.102-4.65-1.15-7.838-3.104-7.838-7.034 0-3.296 2.607-5.443 5.832-6.152v-3.7h5.006v3.738c3.487.863 5.231 3.565 5.344 6.498h-3.675c-.094-2.128-1.2-3.585-4.163-3.585-2.813 0-4.5 1.304-4.5 3.144 0 1.61 1.219 2.664 5.006 3.66 3.788.997 7.838 2.665 7.838 7.495-.019 3.507-2.588 5.424-5.85 6.056z"/>
        <path d="M0 0h45v46H0z"/>
    </g>
</svg>
