<svg xmlns="http://www.w3.org/2000/svg" width="45" height="46" viewBox="0 0 45 46">
    <g fill="none" fill-rule="evenodd">
        <path fill="#FFF" fill-rule="nonzero" d="M22.481 3.833C12.131 3.833 3.75 12.42 3.75 23c0 10.58 8.381 19.167 18.731 19.167C32.85 42.167 41.25 33.58 41.25 23c0-10.58-8.4-19.167-18.769-19.167zm.019 34.5c-8.287 0-15-6.861-15-15.333 0-8.472 6.713-15.333 15-15.333 8.288 0 15 6.861 15 15.333 0 8.472-6.712 15.333-15 15.333z"/>
        <path d="M0 0h45v46H0z"/>
        <path fill="#FFF" fill-rule="nonzero" d="M23.438 13.417h-2.813v11.5l9.844 6.037 1.406-2.357-8.438-5.118z"/>
    </g>
</svg>
